<?xml version="1.0" encoding="UTF-8"?>
<svg width="512pt" height="512pt" version="1.1" viewBox="0 0 512 512" xmlns="http://www.w3.org/2000/svg">
 <defs>
  <clipPath id="c">
   <path d="m94.781 276h322.44v81h-322.44z"/>
  </clipPath>
  <clipPath id="b">
   <path d="m94.781 361h322.44v56.219h-322.44z"/>
  </clipPath>
  <clipPath id="a">
   <path d="m235 94.781h42v61.219h-42z"/>
  </clipPath>
 </defs>
 <path d="m512 256c0 141.39-114.61 256-256 256s-256-114.61-256-256 114.61-256 256-256 256 114.61 256 256" fill="#fff"/>
 <path d="m376.91 225.77c0-16.688-13.543-30.23-30.227-30.23h-80.609v-20.152h-20.152v20.152h-80.609c-16.688 0-30.23 13.543-30.23 30.23v30.227h241.83z" fill="#00c6f4"/>
 <g clip-path="url(#c)">
  <path d="m397.07 276.15h-282.13c-11.125 0-20.152 9.0273-20.152 20.152v20.152c0 22.27 18.035 40.305 40.305 40.305 22.27 0 40.305-18.035 40.305-40.305 0 22.27 18.035 40.305 40.305 40.305 22.27 0 40.305-18.035 40.305-40.305 0 22.27 18.035 40.305 40.305 40.305 22.27 0 40.305-18.035 40.305-40.305 0 22.27 18.035 40.305 40.305 40.305 22.27 0 40.305-18.035 40.305-40.305v-20.152c0-11.125-9.0273-20.152-20.152-20.152z" fill="#00c6f4"/>
 </g>
 <g clip-path="url(#b)">
  <path d="m336.61 361.48c-10.699 9.5938-24.828 15.438-40.305 15.438-15.477 0-29.605-5.8438-40.305-15.438-10.699 9.5938-24.828 15.438-40.305 15.438-15.477 0-29.605-5.8438-40.305-15.438-10.699 9.5938-24.828 15.438-40.305 15.438-15.539 0-29.582-6.0664-40.305-15.719v35.871c0 11.125 9.0273 20.152 20.152 20.152h282.13c11.125 0 20.152-9.0273 20.152-20.152v-35.871c-10.723 9.6719-24.766 15.719-40.305 15.719-15.477 0-29.602-5.8438-40.305-15.438z" fill="#00c6f4"/>
 </g>
 <g clip-path="url(#a)">
  <path d="m256 155.24c11.125 0 20.152-9.0273 20.152-20.152s-20.152-40.305-20.152-40.305-20.152 29.18-20.152 40.305 9.0273 20.152 20.152 20.152z" fill="#00c6f4"/>
 </g>
</svg>
