<?xml version="1.0" encoding="UTF-8"?>
<svg width="1200pt" height="1200pt" version="1.1" viewBox="0 0 1200 1200" xmlns="http://www.w3.org/2000/svg">
 <g>
  <path d="m1200 600c0 214.36-114.36 412.44-300 519.62-185.64 107.18-414.36 107.18-600 0-185.64-107.18-300-305.26-300-519.62s114.36-412.44 300-519.62c185.64-107.18 414.36-107.18 600 0 185.64 107.18 300 305.26 300 519.62" fill="#fff"/>
  <path d="m376.96 600h91.844-0.003907c6.6094-0.003906 12.949-2.6328 17.621-7.3047 4.6719-4.6758 7.3008-11.012 7.3086-17.621v-22.305c0-6.5195-5.2891-11.809-11.809-11.809-6.5234 0-11.809 5.2891-11.809 11.809v22.305c0 0.72266-0.58594 1.3125-1.3125 1.3125h-91.84c-0.34766 0-0.68359-0.14062-0.92969-0.38672-0.24609-0.24219-0.38281-0.57812-0.38281-0.92578v-91.844c0-0.34766 0.13672-0.67969 0.38281-0.92578 0.24609-0.24609 0.58203-0.38281 0.92969-0.38281h57.727c6.5234 0 11.809-5.2891 11.809-11.809s-5.2852-11.809-11.809-11.809h-57.727c-6.6094 0.007812-12.945 2.6367-17.621 7.3086-4.6719 4.6719-7.3008 11.008-7.3086 17.617v91.844c0.007812 6.6094 2.6367 12.945 7.3086 17.621 4.6758 4.6719 11.012 7.3008 17.621 7.3047z" fill="#ff001b"/>
  <path d="m529.15 493.73c-6.5195 0-11.809 5.2852-11.809 11.809 0 6.5195 5.2891 11.805 11.809 11.805h129.89c6.5195 0 11.809-5.2852 11.809-11.805 0-6.5234-5.2891-11.809-11.809-11.809z" fill="#ff001b"/>
  <path d="m670.85 552.77c0-3.1328-1.2461-6.1367-3.4609-8.3477-2.2148-2.2148-5.2188-3.4609-8.3477-3.4609h-129.89c-6.5195 0-11.809 5.2891-11.809 11.809s5.2891 11.809 11.809 11.809h129.89c3.1289 0 6.1328-1.2461 8.3477-3.4609 2.2148-2.2109 3.4609-5.2148 3.4609-8.3477z" fill="#ff001b"/>
  <path d="m473.57 473.57-50.691 50.691-15.27-15.27c-4.6328-4.4727-11.996-4.4102-16.551 0.14453s-4.6211 11.918-0.14453 16.555l23.617 23.617-0.003906-0.003906c4.6133 4.6094 12.086 4.6094 16.699 0l59.039-59.039c4.4766-4.6328 4.4102-11.996-0.14453-16.551s-11.918-4.6211-16.551-0.14453z" fill="#ff001b"/>
  <path d="m376.96 812.55h91.844-0.003907c6.6094-0.007813 12.949-2.6367 17.621-7.3086s7.3008-11.008 7.3086-17.617v-22.309c0-6.5195-5.2891-11.805-11.809-11.805-6.5234 0-11.809 5.2852-11.809 11.805v22.309c0 0.72266-0.58594 1.3086-1.3125 1.3086h-91.84c-0.72656 0-1.3125-0.58594-1.3125-1.3086v-91.844c0-0.72266 0.58594-1.3125 1.3125-1.3125h57.727c6.5234 0 11.809-5.2852 11.809-11.809 0-6.5195-5.2852-11.805-11.809-11.805h-57.727c-6.6094 0.003907-12.945 2.6328-17.621 7.3047-4.6719 4.6758-7.3008 11.012-7.3086 17.621v91.844c0.007812 6.6094 2.6367 12.945 7.3086 17.617 4.6758 4.6719 11.012 7.3008 17.621 7.3086z" fill="#ff001b"/>
  <path d="m473.57 686.12-50.691 50.691-15.27-15.27v0.003907c-4.6328-4.4766-11.996-4.4102-16.551 0.14453s-4.6211 11.918-0.14453 16.551l23.617 23.617h-0.003906c4.6133 4.6094 12.086 4.6094 16.699 0l59.039-59.039v-0.003906c4.4766-4.6328 4.4102-11.996-0.14453-16.551-4.5547-4.5547-11.918-4.6172-16.551-0.14453z" fill="#ff001b"/>
  <path d="m529.15 729.89h50.879c-0.56641-8.2656-0.82812-16.223-0.86328-23.617h-50.016c-6.5195 0-11.809 5.2891-11.809 11.809s5.2891 11.809 11.809 11.809z" fill="#ff001b"/>
  <path d="m529.15 777.12h57.516c-1.7695-8.0547-3.1289-15.941-4.2031-23.617l-53.312 0.003906c-6.5195 0-11.809 5.2852-11.809 11.805 0 6.5234 5.2891 11.809 11.809 11.809z" fill="#ff001b"/>
  <path d="m924.72 646.87c-58.852 13.355-111.09-26.391-130.86-44.125-4.1914-3.7539-9.6172-5.8281-15.238-5.8281-5.625 0-11.051 2.0742-15.238 5.8281-19.922 17.711-72.523 57.574-130.93 44.188l-0.003906-0.003907c-6.5352-1.5234-13.414-0.12109-18.832 3.8398-5.418 3.9609-8.8438 10.086-9.375 16.777-6.1055 89.648 4.3672 216.71 165.31 284.93 5.7578 2.418 12.246 2.418 18.008 0 160.98-68.203 171.48-195.22 165.31-284.84v-0.003906c-0.39453-6.75-3.7695-12.973-9.2109-16.984-5.4453-4.0117-12.391-5.3945-18.953-3.7734zm-63.562 113.55-81.203 76.93c-4.5078 4.2734-10.508 6.6172-16.719 6.5352-6.2109-0.085937-12.145-2.5898-16.535-6.9844l-39.57-39.57h0.003907c-5.8789-6.0469-8.1211-14.754-5.8984-22.891 2.2227-8.1406 8.5781-14.496 16.715-16.719s16.844 0.019531 22.895 5.8984l23.156 23.156 64.379-61c6.1797-5.8594 15.02-7.9766 23.184-5.5508 8.168 2.4219 14.418 9.0195 16.402 17.305 1.9844 8.2812-0.60156 16.996-6.7852 22.855z" fill="#ff001b"/>
  <path d="m304.33 954.24h376.31c5.0508-0.070313 9.5-3.3477 11.062-8.1523 1.5625-4.8047-0.10156-10.07-4.1445-13.102-17.695-13.082-33.727-28.281-47.727-45.262-2.1992-2.7305-5.5156-4.3242-9.0234-4.332h-302.39c-6.3867 0.11719-11.668-4.9492-11.809-11.336l0.23438-485.19c0.27344-6.3086 5.4961-11.27 11.809-11.219h11.574c3.1289 0 6.1328-1.2422 8.3477-3.457 2.2148-2.2148 3.457-5.2188 3.457-8.3516v-47.23c0.023438-3.1289-1.207-6.1367-3.4102-8.3555-2.207-2.2148-5.207-3.4609-8.3359-3.4531h-35.945c-15.52 0.042969-30.395 6.2266-41.371 17.203-10.973 10.973-17.16 25.844-17.207 41.363v532.31c0.046875 15.52 6.2305 30.387 17.203 41.359 10.977 10.977 25.844 17.16 41.363 17.207z" fill="#ff001b"/>
  <path d="m682.66 364.08c0 3.1289 1.2461 6.1328 3.4609 8.3477 2.2148 2.2148 5.2188 3.4609 8.3477 3.4609h11.809c6.3867-0.12109 11.668 4.9492 11.809 11.336l-0.10547 197.27v-0.003906c-0.007812 4.5156 2.5586 8.6367 6.6094 10.625 4.0547 1.9844 8.8867 1.4883 12.449-1.2852 4.3672-3.3047 7.9805-6.3164 10.688-8.7031l-0.003906 0.003906c8.3555-7.3086 19.07-11.348 30.172-11.371 6.2734-0.28906 11.176-5.5312 11.039-11.809v-198.58c-0.046876-15.516-6.2305-30.387-17.207-41.359-10.973-10.977-25.84-17.16-41.359-17.207h-35.898c-6.5195 0-11.809 5.2852-11.809 11.809v47.469z" fill="#ff001b"/>
  <path d="m411.63 411.07h211.43c9.5391-0.011719 18.684-3.8086 25.426-10.555 6.7461-6.7422 10.543-15.887 10.555-25.426v-69.738c-0.011719-9.5391-3.8086-18.684-10.555-25.426-6.7422-6.7461-15.887-10.539-25.426-10.555h-61.672c-9.8008-14.75-26.336-23.617-44.047-23.617-17.707 0-34.242 8.8672-44.043 23.617h-61.672c-9.5391 0.015625-18.684 3.8086-25.43 10.555-6.7422 6.7422-10.539 15.887-10.551 25.426v69.738c0.011718 9.5391 3.8086 18.684 10.551 25.426 6.7461 6.7461 15.891 10.543 25.43 10.555zm158.85-82.656c4.7773 0 9.082 2.875 10.91 7.2891 1.8281 4.4102 0.81641 9.4922-2.5586 12.867-3.3789 3.3789-8.457 4.3867-12.871 2.5586-4.4102-1.8281-7.2891-6.1328-7.2891-10.906 0-6.5234 5.2891-11.809 11.809-11.809zm-118.08 0h70.852c6.5195 0 11.809 5.2852 11.809 11.809 0 6.5195-5.2891 11.805-11.809 11.805h-70.848c-6.5234 0-11.809-5.2852-11.809-11.805 0-6.5234 5.2852-11.809 11.809-11.809z" fill="#ff001b"/>
 </g>
</svg>
