<?xml version="1.0" encoding="UTF-8"?>
<svg width="1200pt" height="1200pt" version="1.1" viewBox="0 0 1200 1200" xmlns="http://www.w3.org/2000/svg">
 <g>
  <path d="m1200 600c0 214.36-114.36 412.44-300 519.62-185.64 107.18-414.36 107.18-600 0-185.64-107.18-300-305.26-300-519.62s114.36-412.44 300-519.62c185.64-107.18 414.36-107.18 600 0 185.64 107.18 300 305.26 300 519.62" fill="#fff"/>
  <path d="m627.96 934.03c-9.8242 0-20.402-3.0234-29.473-9.0703-12.09-7.5586-19.648-19.648-22.672-33.25-3.0234-13.602 0-27.961 7.5586-40.055l55.168-82.371-48.367-77.082-70.281-110.34 53.656-80.863-49.121-11.336-49.121 74.059c-15.871 24.184-49.121 30.984-73.305 15.113-12.09-7.5586-19.648-19.648-22.672-33.25-3.0234-13.602 0-27.961 7.5586-40.055l69.527-105.04c12.09-17.383 34.008-26.449 55.168-21.914l120.91 27.207c6.8008 1.5117 53.656 26.449 139.81 74.059l14.359 7.5586-102.78 154.92 62.723 99c11.336 18.137 10.578 41.562-2.2656 59.703-1.5117 2.2656-2.2656 4.5352-3.7773 6.8008l-68.77 102.78c-9.8359 15.113-26.461 23.426-43.84 23.426z" fill="#ff001b"/>
  <path d="m760.97 439.79c-17.383 0-34.762-4.5352-49.879-15.113-20.402-13.602-34.008-34.008-38.543-57.434-4.5352-23.426 0-47.609 13.602-68.016 27.961-41.562 83.883-52.898 125.45-25.695 20.402 13.602 34.008 34.008 38.543 57.434 4.5352 23.426 0 47.609-13.602 68.016-17.379 26.453-46.098 40.809-75.57 40.809zm0-151.14c-3.7773 0-8.3125 0.75391-12.09 1.5117-15.871 3.0234-29.473 12.09-38.543 25.695-9.0703 13.602-12.09 29.473-9.0703 45.344 3.0234 15.871 12.09 29.473 25.695 38.543 13.602 9.0703 29.473 12.09 45.344 9.0703 15.871-3.0234 29.473-12.09 38.543-25.695 9.0703-13.602 12.09-29.473 9.0703-45.344-3.0234-15.871-12.09-29.473-25.695-38.543-9.8281-7.5586-21.164-10.582-33.254-10.582z" fill="#ff001b"/>
  <path d="m852.41 612.09c-3.7773 0-7.5586-0.75391-11.336-1.5117l-105.04-23.426 62.723-92.953 33.25 7.5586 48.367-72.547c7.5586-11.336 19.648-19.648 33.25-21.914 13.602-3.0234 27.207 0 39.297 7.5586 11.336 7.5586 19.648 19.648 21.914 33.25 3.0234 13.602 0 27.207-7.5586 39.297l-67.258 101.27c-6.8008 9.8242-17.383 17.383-28.719 21.16-0.75391 0-0.75391 0-1.5117 0.75391h-1.5078c-6.043 0.75-11.332 1.5078-15.867 1.5078zm-66.504-44.586 61.969 14.359c3.7773 0.75391 7.5586 0.75391 11.336-0.75391h0.75391l2.2656-0.75391c3.7773-0.75391 9.0703-3.0234 12.09-9.0703l67.258-101.27c3.0234-4.5352 4.5352-10.578 3.0234-16.625-1.5117-6.0469-4.5352-10.578-9.0703-13.602s-10.578-4.5352-16.625-3.0234c-6.0469 1.5117-10.578 4.5352-13.602 9.0703l-59.703 89.93-33.25-7.5586z" fill="#ff001b"/>
  <path d="m472.29 796.49c-6.8008 0-14.359-1.5117-21.16-4.5352l-108.07-24.184c-27.961-6.0469-45.344-34.008-39.297-62.723 3.0234-13.602 11.336-24.938 23.426-32.496 12.09-7.5586 25.695-9.8242 39.297-6.8008l83.129 18.895 46.855-70.281c0.75391-1.5117 1.5117-2.2656 3.0234-3.7773l13.602-16.625 11.336 17.383 48.367 76.328-57.434 86.152c-9.8242 14.352-26.453 22.664-43.078 22.664zm-117.89-101.27c-3.7773 0-8.3125 1.5117-11.336 3.0234-5.2891 3.0234-8.3125 8.3125-9.8242 13.602-3.0234 12.09 4.5352 23.426 16.625 26.449l111.85 25.695 1.5117 0.75391c9.8242 4.5352 21.914 1.5117 27.961-7.5586l45.344-68.77-25.695-40.809-47.609 71.039-103.53-23.426h-5.293z" fill="#ff001b"/>
  <path d="m231.21 280.34h420.93v30.23h-420.93z" fill="#ff001b"/>
  <path d="m231.21 355.91h204.8v30.23h-204.8z" fill="#ff001b"/>
  <path d="m231.21 431.48h147.36v30.23h-147.36z" fill="#ff001b"/>
  <path d="m231.21 507.05h118.65v30.23h-118.65z" fill="#ff001b"/>
  <path d="m231.21 582.62h74.059v30.23h-74.059z" fill="#ff001b"/>
  <path d="m231.21 658.19h43.832v30.23h-43.832z" fill="#ff001b"/>
  <path d="m231.21 733.76h43.832v30.23h-43.832z" fill="#ff001b"/>
  <path d="m231.21 809.34h179.86v30.23h-179.86z" fill="#ff001b"/>
  <path d="m231.21 884.91h293.22v30.23h-293.22z" fill="#ff001b"/>
 </g>
</svg>
