<?xml version="1.0" encoding="UTF-8"?>
<svg width="512pt" height="512pt" version="1.1" viewBox="0 0 512 512" xmlns="http://www.w3.org/2000/svg">
 <g>
  <path d="m512 256c0 141.39-114.61 256-256 256s-256-114.61-256-256 114.61-256 256-256 256 114.61 256 256" fill="#fff"/>
  <path d="m267.93 398.52c-4.1914 0-8.707-1.2891-12.574-3.8711-5.1602-3.2227-8.3828-8.3828-9.6719-14.188-1.2891-5.8047 0-11.93 3.2227-17.09l23.539-35.145-20.637-32.891-29.988-47.074 22.895-34.5-20.957-4.8359-20.957 31.598c-6.7695 10.316-20.957 13.219-31.277 6.4492-5.1602-3.2227-8.3828-8.3828-9.6719-14.188-1.2891-5.8047 0-11.93 3.2227-17.09l29.664-44.82c5.1602-7.418 14.508-11.285 23.539-9.3516l51.59 11.609c2.9023 0.64453 22.895 11.285 59.652 31.598l6.125 3.2227-43.852 66.102 26.762 42.238c4.8359 7.7383 4.5156 17.734-0.96875 25.473-0.64453 0.96875-0.96875 1.9336-1.6133 2.9023l-29.344 43.852c-4.1875 6.4531-11.281 10-18.699 10z" fill="#00c6f4"/>
  <path d="m324.68 187.64c-7.418 0-14.832-1.9336-21.281-6.4492-8.707-5.8047-14.508-14.508-16.445-24.504-1.9336-9.9961 0-20.312 5.8047-29.02 11.93-17.734 35.789-22.57 53.523-10.965 8.707 5.8047 14.508 14.508 16.445 24.504 1.9336 9.9961 0 20.312-5.8047 29.02-7.4141 11.285-19.668 17.414-32.242 17.414zm0-64.488c-1.6133 0-3.5469 0.32422-5.1602 0.64453-6.7695 1.2891-12.574 5.1602-16.445 10.965-3.8711 5.8047-5.1602 12.574-3.8711 19.348 1.2891 6.7695 5.1602 12.574 10.965 16.445 5.8047 3.8711 12.574 5.1602 19.348 3.8711 6.7695-1.2891 12.574-5.1602 16.445-10.965 3.8711-5.8047 5.1602-12.574 3.8711-19.348-1.2891-6.7695-5.1602-12.574-10.965-16.445-4.1914-3.2266-9.0273-4.5156-14.188-4.5156z" fill="#00c6f4"/>
  <path d="m363.7 261.16c-1.6133 0-3.2227-0.32422-4.8359-0.64453l-44.82-9.9961 26.762-39.66 14.188 3.2227 20.637-30.953c3.2227-4.8359 8.3828-8.3828 14.188-9.3516 5.8047-1.2891 11.609 0 16.766 3.2227 4.8359 3.2227 8.3828 8.3828 9.3516 14.188 1.2891 5.8047 0 11.609-3.2227 16.766l-28.695 43.207c-2.9023 4.1914-7.418 7.418-12.254 9.0273-0.32422 0-0.32422 0-0.64453 0.32422h-0.64844c-2.5781 0.32422-4.8359 0.64844-6.7695 0.64844zm-28.375-19.023 26.441 6.125c1.6133 0.32422 3.2227 0.32422 4.8359-0.32422h0.32422l0.96875-0.32422c1.6133-0.32422 3.8711-1.2891 5.1602-3.8711l28.695-43.207c1.2891-1.9336 1.9336-4.5156 1.2891-7.0938-0.64453-2.5781-1.9336-4.5156-3.8711-5.8047-1.9336-1.2891-4.5156-1.9336-7.0938-1.2891-2.5781 0.64453-4.5156 1.9336-5.8047 3.8711l-25.473 38.371-14.188-3.2227z" fill="#00c6f4"/>
  <path d="m201.51 339.84c-2.9023 0-6.125-0.64453-9.0273-1.9336l-46.109-10.316c-11.93-2.5781-19.348-14.508-16.766-26.762 1.2891-5.8047 4.8359-10.641 9.9961-13.863 5.1602-3.2227 10.965-4.1914 16.766-2.9023l35.469 8.0625 19.992-29.988c0.32422-0.64453 0.64453-0.96875 1.2891-1.6133l5.8047-7.0938 4.8359 7.418 20.637 32.566-24.504 36.758c-4.1953 6.1211-11.289 9.668-18.383 9.668zm-50.301-43.207c-1.6133 0-3.5469 0.64453-4.8359 1.2891-2.2578 1.2891-3.5469 3.5469-4.1914 5.8047-1.2891 5.1602 1.9336 9.9961 7.0938 11.285l47.723 10.965 0.64453 0.32422c4.1914 1.9336 9.3516 0.64453 11.93-3.2227l19.348-29.344-10.965-17.41-20.312 30.309-44.176-9.9961c-0.96875-0.003906-1.6133-0.003906-2.2578-0.003906z" fill="#00c6f4"/>
  <path d="m98.652 119.61h179.6v12.898h-179.6z" fill="#00c6f4"/>
  <path d="m98.652 151.85h87.379v12.898h-87.379z" fill="#00c6f4"/>
  <path d="m98.652 184.1h62.875v12.898h-62.875z" fill="#00c6f4"/>
  <path d="m98.652 216.34h50.621v12.898h-50.621z" fill="#00c6f4"/>
  <path d="m98.652 248.59h31.598v12.898h-31.598z" fill="#00c6f4"/>
  <path d="m98.652 280.83h18.703v12.898h-18.703z" fill="#00c6f4"/>
  <path d="m98.652 313.07h18.703v12.898h-18.703z" fill="#00c6f4"/>
  <path d="m98.652 345.32h76.742v12.898h-76.742z" fill="#00c6f4"/>
  <path d="m98.652 377.56h125.11v12.898h-125.11z" fill="#00c6f4"/>
 </g>
</svg>
