<?xml version="1.0" encoding="UTF-8"?>
<svg width="512pt" height="512pt" version="1.1" viewBox="0 0 512 512" xmlns="http://www.w3.org/2000/svg">
 <g>
  <path d="m512 256c0 141.39-114.61 256-256 256s-256-114.61-256-256 114.61-256 256-256 256 114.61 256 256" fill="#fff"/>
  <path d="m394.14 160.68-7.1992 88.566-78.742 17.43-43.852-32.441-0.003906-84.574 46.594 23.887zm-86.648 130.23-43.145-34.484 0.007813 22.723 20.066 17.262-90.309 21.555-33.637-39.988 5.4805 77.902 32.305 46.816 85.055-25.148 0.37891-27.855 21.438 21.398 73.676-21.789 6.25-76.895zm-57.258-46.422-94.113 10.238-37.656-26.602-0.60156-102.35 103.99-14.867 23.137 42.184zm-124.98-112.34c0.066407 10.316 0.44531 74.754 0.52344 87.711 13.012-1.5195 82.457-9.625 93.496-10.906-0.53906-11.012-3.7539-76.848-4.375-89.613-12.734 1.8164-79.355 11.348-89.645 12.809z" fill="#ff001b"/>
 </g>
</svg>
