<?xml version="1.0" encoding="UTF-8"?>
<svg width="512pt" height="512pt" version="1.1" viewBox="0 0 512 512" xmlns="http://www.w3.org/2000/svg">
 <defs>
  <clipPath id="a">
   <path d="m94.781 125h322.44v262h-322.44z"/>
  </clipPath>
 </defs>
 <path d="m512 256c0 141.39-114.61 256-256 256s-256-114.61-256-256 114.61-256 256-256 256 114.61 256 256" fill="#fff"/>
 <path d="m256.76 238.99c17.914 0 36.957-5.7578 36.957-16.43v-20.145c0-0.66797-0.074219-1.3125-0.21875-1.9453-0.28906-1.2539-0.85156-2.4336-1.6562-3.5352-0.40234-0.55078-0.86328-1.0781-1.3789-1.5898-0.37109-0.36328-0.76563-0.71484-1.1914-1.0625-0.16406-0.13281-0.34375-0.25391-0.50781-0.37891-0.26953-0.20703-0.54297-0.41406-0.83203-0.60938-0.23047-0.15625-0.47656-0.30859-0.71875-0.46484-0.24609-0.15625-0.48828-0.30859-0.75-0.46094-0.28906-0.17188-0.60156-0.33594-0.89844-0.49609-0.21875-0.12109-0.44922-0.23828-0.67578-0.35547-0.35156-0.17578-0.71094-0.34766-1.0781-0.51562-0.19531-0.089844-0.39844-0.17578-0.59375-0.26562-0.41406-0.17969-0.83984-0.35938-1.2656-0.52734-0.16406-0.066407-0.32422-0.12109-0.47656-0.1875-0.47656-0.17969-0.96484-0.35938-1.4609-0.53125-0.11328-0.039063-0.22656-0.074219-0.33594-0.11328-0.54688-0.18359-1.1094-0.35938-1.6758-0.53125-3.5156-1.043-7.3945-1.8125-11.406-2.2852-1.625-0.19141-3.2539-0.33594-4.9023-0.43359h-0.003906c-1.6445-0.097656-3.293-0.14453-4.9336-0.14453h-0.003906c-15.672 0-32.211 4.4102-36.102 12.664-0.55469 1.1758-0.85156 2.4336-0.85156 3.7695v20.145c0.007813 10.672 19.047 16.43 36.961 16.43zm30.691-16.43c0 4.1445-11.953 10.164-30.688 10.164v-13.875c11.586-0.003906 23.617-2.4258 30.688-7.0156zm-61.242-20.941c0.082031-0.24219 0.20703-0.48828 0.35938-0.73828 0.054688-0.085937 0.12891-0.17578 0.19141-0.26172 0.11719-0.16406 0.23047-0.32812 0.37891-0.49219 0.09375-0.10547 0.20703-0.21484 0.31641-0.32422 0.13672-0.14453 0.28516-0.28906 0.45312-0.43359 0.13672-0.12109 0.28516-0.24219 0.44141-0.35938 0.16016-0.12891 0.32812-0.25781 0.50781-0.38672 0.1875-0.13672 0.38281-0.26953 0.58984-0.40234 0.17188-0.10938 0.34375-0.21875 0.52734-0.33203 0.23828-0.14453 0.48828-0.29297 0.75391-0.4375 0.16406-0.089844 0.33594-0.17578 0.50391-0.26562 0.31641-0.16016 0.62891-0.32422 0.96875-0.47656 0.12109-0.058594 0.24609-0.10938 0.36719-0.16406 3.3906-1.5234 8.0117-2.8398 13.637-3.6016 0.019531-0.003906 0.039063-0.007812 0.058594-0.007812 0.80469-0.10938 1.6328-0.20312 2.4805-0.28516 0.035156-0.003906 0.066406-0.007813 0.097656-0.007813 0.85156-0.082031 1.7188-0.15625 2.6094-0.21094h0.007812c1.7031-0.10938 3.4648-0.17578 5.3086-0.17578 1.9336 0 3.7969 0.066407 5.5781 0.1875 2.9844 0.19922 5.7422 0.5625 8.2617 1.0312 0.17578 0.03125 0.35156 0.066407 0.52344 0.10156 1.9961 0.39062 3.832 0.85156 5.4961 1.3594 0.16406 0.050781 0.33594 0.10547 0.50391 0.15625 0.80469 0.25781 1.5781 0.52734 2.3047 0.80469 0.007812 0.003906 0.019531 0.007812 0.03125 0.011718 0.69141 0.26953 1.3359 0.55469 1.9492 0.84375 0.15234 0.070313 0.30469 0.14062 0.44922 0.21094 0.60156 0.29297 1.1641 0.59375 1.6719 0.89453 0.011719 0.007813 0.027344 0.019531 0.046875 0.027344 0.48828 0.29297 0.91797 0.59375 1.3164 0.89062 0.10547 0.082031 0.21094 0.15625 0.31641 0.23828 0.38281 0.30859 0.73828 0.61719 1.0234 0.92578 0.80469 0.85938 1.2266 1.6992 1.2266 2.4766 0 4.1484-11.961 10.168-30.691 10.168-1.3867 0-2.7188-0.042969-4.0273-0.10547-0.39062-0.015625-0.76953-0.046875-1.1562-0.066407-0.93359-0.058593-1.8555-0.13281-2.75-0.21484-0.37109-0.039063-0.73828-0.070313-1.1016-0.11328-1.0469-0.12109-2.0742-0.25781-3.0547-0.41016-0.13281-0.023437-0.27344-0.039062-0.40234-0.058593-1.1562-0.19141-2.2578-0.40625-3.3164-0.64063-0.15234-0.03125-0.29688-0.070312-0.44922-0.10547-0.91016-0.21094-1.7812-0.43359-2.6094-0.67188-0.16406-0.046875-0.33203-0.09375-0.48828-0.14062-4.4414-1.3164-7.7031-2.9844-9.5547-4.6445-0.070312-0.066406-0.14062-0.12891-0.20703-0.19531-0.16406-0.15625-0.32812-0.31641-0.47266-0.47266-0.1875-0.20703-0.35547-0.41406-0.49219-0.62109-0.066406-0.089844-0.10547-0.17969-0.15625-0.26953-0.09375-0.16797-0.17969-0.33594-0.24609-0.5-0.03125-0.078125-0.066406-0.15625-0.085937-0.23047-0.066406-0.23828-0.12109-0.47266-0.12109-0.69922-0.011719-0.26562 0.035157-0.53125 0.125-0.80469z" fill="#00c6f4"/>
 <g clip-path="url(#a)">
  <path d="m417.09 193.97c-0.027344-0.085937-0.066406-0.17188-0.10156-0.25391-0.066407-0.18359-0.15234-0.35938-0.25-0.52734-0.058594-0.089844-0.11328-0.17188-0.17578-0.25391-0.11328-0.15234-0.25-0.28906-0.39844-0.42188-0.066407-0.066406-0.13281-0.13281-0.20703-0.19141-0.03125-0.023438-0.058594-0.054688-0.085938-0.078125-0.19922-0.14062-0.42188-0.25-0.64844-0.33984-0.007812 0-0.007812-0.007812-0.011718-0.007812l-0.007813-0.003907c-0.007812 0-0.007812 0-0.011719-0.003906l-42.809-16.391v-2.7266c0-0.66797-0.074219-1.3164-0.21094-1.9453-0.28906-1.2578-0.85938-2.4336-1.6641-3.5391-0.39844-0.54687-0.86328-1.0781-1.3789-1.5898-0.36328-0.36328-0.76562-0.71484-1.1914-1.0625-0.15625-0.13281-0.33984-0.25391-0.50781-0.37891-0.26953-0.20703-0.54297-0.41406-0.83203-0.60937-0.23047-0.15625-0.47656-0.30859-0.71875-0.46484-0.24609-0.15625-0.48437-0.30859-0.75-0.46094-0.28906-0.17188-0.59375-0.33594-0.89844-0.5-0.21875-0.12109-0.44141-0.23828-0.67578-0.35547-0.34375-0.17578-0.71094-0.34766-1.0781-0.51563-0.19531-0.089843-0.39844-0.17969-0.59375-0.26953-0.41406-0.17969-0.83203-0.35938-1.2656-0.52734-0.15625-0.066407-0.32422-0.12109-0.47656-0.1875-0.47656-0.17969-0.96484-0.35938-1.4609-0.53125-0.10547-0.039063-0.21875-0.074219-0.33594-0.11328-0.54688-0.18359-1.1094-0.36328-1.6758-0.53516-3.5156-1.043-7.3867-1.8125-11.406-2.2852-1.6172-0.19141-3.2578-0.33594-4.9023-0.43359-1.6523-0.097656-3.293-0.14453-4.9375-0.14453h-0.007812c-3.7227 0-7.5 0.25781-11.141 0.75l-31.32-11.988 0.003907-2.7109c0-0.66797-0.074219-1.3164-0.21875-1.9453-0.28906-1.2578-0.85156-2.4336-1.6562-3.5352-0.40234-0.55078-0.86328-1.0781-1.3789-1.5898-0.36328-0.36328-0.76562-0.71484-1.1914-1.0625-0.16406-0.13281-0.34375-0.25391-0.50781-0.37891-0.26953-0.20703-0.54297-0.41406-0.83203-0.60938-0.23047-0.15625-0.47656-0.30859-0.71875-0.46484-0.24609-0.15625-0.48828-0.30859-0.75-0.46094-0.28906-0.17188-0.59375-0.33594-0.89844-0.49609-0.21875-0.12109-0.44922-0.23828-0.67578-0.35547-0.35156-0.17578-0.71094-0.34766-1.0781-0.51562-0.19531-0.089844-0.39844-0.17969-0.59375-0.26563-0.41406-0.17969-0.83984-0.35937-1.2656-0.52734-0.15625-0.066407-0.32422-0.12109-0.47656-0.1875-0.47656-0.17969-0.96484-0.35938-1.4609-0.53125-0.11328-0.039063-0.21875-0.074219-0.33594-0.11328-0.54688-0.18359-1.1094-0.35938-1.6758-0.53125-3.5156-1.043-7.3945-1.8125-11.406-2.2852-1.625-0.19141-3.2539-0.33594-4.9023-0.43359h-0.003906c-1.6367-0.097657-3.2891-0.14453-4.9297-0.14453h-0.003906c-15.672 0-32.211 4.4102-36.102 12.664-0.55469 1.1758-0.85547 2.4336-0.85547 3.7695v1.9375l-31.559 11.891c0.1875 0.023437 0.36719 0.054687 0.55078 0.082031-0.28906-0.039062-0.57812-0.085937-0.87109-0.12109-1.6172-0.19141-3.2539-0.33594-4.9023-0.43359h-0.003907c-1.6445-0.097657-3.293-0.14453-4.9336-0.14453h-0.003907c-15.672 0-32.211 4.4102-36.102 12.664-0.55469 1.1797-0.85156 2.4375-0.85156 3.7695v1.9375l-43.566 16.41c-0.23828 0.085937-0.46875 0.20703-0.67969 0.35156-0.03125 0.023438-0.054688 0.050781-0.082032 0.074219-0.078124 0.058593-0.13672 0.12109-0.21094 0.19141-0.14453 0.12891-0.28125 0.26953-0.39844 0.41797-0.066407 0.082031-0.12109 0.16406-0.17578 0.25-0.10156 0.16797-0.18359 0.33984-0.25391 0.52344-0.035156 0.082031-0.074219 0.17188-0.10156 0.26172-0.078126 0.26562-0.125 0.53906-0.12891 0.82031 0 0.011719-0.003906 0.023438-0.003906 0.03125v0.003907 0.003906 128.82c0 1.2969 0.80469 2.4648 2.0117 2.9258l158.84 60.801c0.027344 0.011719 0.058594 0.007813 0.085937 0.019532 0.33594 0.11328 0.67969 0.19141 1.0312 0.19141 0.34375 0 0.6875-0.066406 1.0195-0.18359 0.027344-0.011719 0.058594-0.007812 0.082032-0.019531l157.33-59.285c1.2422-0.44922 2.0469-1.6172 2.0469-2.9219v-128.82c0-0.29688-0.050781-0.57812-0.125-0.85156zm-92.164-30.676c0.80469-0.10547 1.6328-0.20312 2.4766-0.28516 0.039062-0.003907 0.066406-0.007813 0.10156-0.007813 0.85156-0.082031 1.7188-0.15625 2.6094-0.21094h0.007812c1.707-0.10938 3.4688-0.17969 5.3086-0.17969 1.9336 0 3.7969 0.066407 5.5781 0.1875 2.9844 0.19922 5.7344 0.5625 8.2617 1.0312 0.17578 0.03125 0.34375 0.066407 0.51562 0.10156 1.9961 0.39062 3.832 0.85156 5.4961 1.3594 0.17188 0.050781 0.33594 0.10547 0.50391 0.15625 0.80469 0.26172 1.5859 0.52734 2.3047 0.80469 0.011719 0.003906 0.019531 0.007813 0.03125 0.011719 0.69141 0.26953 1.3359 0.55859 1.9492 0.84375 0.15234 0.070313 0.29688 0.14062 0.44141 0.21094 0.60156 0.29297 1.1641 0.58984 1.6758 0.89453 0.011719 0.007812 0.027344 0.019531 0.039063 0.027344 0.48828 0.29297 0.91797 0.59375 1.3203 0.89062 0.10547 0.082032 0.20703 0.15625 0.30859 0.23828 0.38281 0.30859 0.74219 0.61719 1.0312 0.92578 0.80078 0.85938 1.2227 1.6992 1.2227 2.4805 0 4.1484-11.953 10.168-30.691 10.168-1.3867 0-2.7227-0.042968-4.0234-0.10547-0.39844-0.015625-0.77344-0.046875-1.1562-0.066406-0.9375-0.058594-1.8555-0.13281-2.7539-0.21484-0.36328-0.035156-0.73828-0.070313-1.0977-0.11328-1.0508-0.12109-2.0742-0.25781-3.0586-0.41406-0.125-0.023438-0.26953-0.035156-0.39844-0.058594-1.1562-0.19141-2.2617-0.40625-3.3164-0.64062-0.15234-0.03125-0.30469-0.070312-0.45313-0.10547-0.90625-0.21094-1.7773-0.43359-2.6094-0.67187-0.16406-0.046876-0.32813-0.097657-0.48438-0.14063-4.4414-1.3164-7.7109-2.9844-9.5586-4.6445-0.066407-0.066406-0.13672-0.12891-0.19922-0.19531-0.17188-0.15625-0.33594-0.31641-0.47266-0.47266-0.18359-0.20703-0.35156-0.41406-0.48828-0.62109-0.066406-0.089844-0.10547-0.17969-0.15625-0.26953-0.09375-0.16797-0.18359-0.33594-0.24609-0.5-0.039063-0.078126-0.066407-0.15625-0.085938-0.23047-0.066406-0.23828-0.12109-0.47266-0.12109-0.69922 0-0.26172 0.050781-0.52734 0.13672-0.79688 0.082032-0.24219 0.20703-0.48828 0.35938-0.73828 0.050781-0.085938 0.125-0.17578 0.19141-0.26172 0.11328-0.16406 0.23047-0.32812 0.37891-0.49219 0.09375-0.10938 0.20703-0.21484 0.31641-0.32422 0.13672-0.14453 0.28906-0.28906 0.45312-0.43359 0.13672-0.12109 0.28906-0.24219 0.44141-0.35938 0.16406-0.12891 0.32812-0.25781 0.50391-0.38672 0.19141-0.13672 0.38281-0.26953 0.59375-0.40234 0.16406-0.10938 0.34375-0.21875 0.52734-0.33203 0.23828-0.14453 0.48828-0.29297 0.75391-0.4375 0.16406-0.085937 0.33594-0.17578 0.50391-0.26562 0.30859-0.16016 0.62109-0.32422 0.96875-0.48047 0.12109-0.054687 0.24609-0.10937 0.37109-0.16406 3.3906-1.5234 8.0078-2.8398 13.637-3.5977 0.011719-0.007813 0.03125-0.011719 0.050782-0.011719zm41.184 18.895v10.727c0 4.1445-11.953 10.168-30.684 10.168v-13.875c11.586-0.003907 23.613-2.4258 30.684-7.0195zm-140.66-40.613c0.082031-0.24219 0.20703-0.48828 0.35938-0.73828 0.054688-0.085938 0.12891-0.17578 0.19141-0.26172 0.11719-0.16406 0.23047-0.32812 0.37891-0.49219 0.09375-0.10547 0.20703-0.21484 0.3125-0.32422 0.14063-0.14453 0.28906-0.28906 0.45313-0.43359 0.13672-0.12109 0.28906-0.24219 0.44141-0.35938 0.16016-0.13281 0.32422-0.26172 0.50391-0.39062 0.1875-0.13672 0.38281-0.26953 0.58984-0.40234 0.17188-0.10938 0.34375-0.21875 0.52734-0.32812 0.24219-0.14453 0.48828-0.29297 0.75391-0.4375 0.16406-0.085937 0.33594-0.17578 0.50391-0.26562 0.31641-0.16016 0.62891-0.32422 0.96875-0.47656 0.12109-0.058594 0.24609-0.10938 0.37109-0.16406 3.3906-1.5234 8.0078-2.8398 13.637-3.6016 0.019532-0.003906 0.039063-0.007813 0.058594-0.007813 0.80469-0.10938 1.6328-0.20312 2.4805-0.28516 0.035156-0.003906 0.066406-0.007813 0.097656-0.007813 0.85156-0.082031 1.7188-0.15625 2.6094-0.21094h0.007813c1.6992-0.11328 3.4648-0.18359 5.3008-0.18359 1.9336 0 3.7969 0.066407 5.5781 0.18359 2.9844 0.19922 5.7422 0.5625 8.2617 1.0312 0.17578 0.03125 0.35156 0.066406 0.52344 0.10156 1.9961 0.38672 3.832 0.85156 5.4961 1.3594 0.16406 0.050782 0.33594 0.10547 0.50391 0.15625 0.80469 0.25781 1.5781 0.52734 2.3047 0.80469 0.007812 0.003906 0.019531 0.007812 0.03125 0.011719 0.69141 0.26953 1.3359 0.55469 1.9492 0.84375 0.15234 0.070312 0.29687 0.14062 0.44141 0.21094 0.60156 0.29297 1.1641 0.59375 1.6719 0.89453 0.011719 0.007812 0.027343 0.019531 0.046875 0.027343 0.48828 0.29297 0.91797 0.59375 1.3164 0.89062 0.10547 0.082032 0.21094 0.15625 0.31641 0.23828 0.38281 0.30859 0.74219 0.61719 1.0234 0.92578 0.80469 0.85938 1.2266 1.6992 1.2266 2.4766 0 4.1484-11.953 10.168-30.691 10.168-1.3867 0-2.7188-0.042969-4.0273-0.10547-0.39062-0.015625-0.76953-0.046875-1.1562-0.066406-0.93359-0.058594-1.8555-0.13281-2.75-0.21484-0.37109-0.039062-0.73828-0.070312-1.1016-0.11328-1.0469-0.12109-2.0703-0.25781-3.0547-0.41406-0.13281-0.019532-0.26953-0.035157-0.40234-0.058594-1.1562-0.19141-2.2578-0.40625-3.3164-0.64062-0.15234-0.03125-0.29688-0.070313-0.44922-0.10547-0.91016-0.21094-1.7812-0.43359-2.6094-0.67188-0.16406-0.046875-0.32812-0.09375-0.48828-0.14062-4.4414-1.3164-7.7031-2.9844-9.5547-4.6445-0.070313-0.066407-0.13672-0.12891-0.20312-0.19531-0.16406-0.15625-0.33203-0.31641-0.47266-0.47266-0.1875-0.20703-0.35547-0.41406-0.49219-0.62109-0.0625-0.089844-0.10547-0.17969-0.15625-0.26953-0.09375-0.16797-0.17969-0.33594-0.24609-0.5-0.03125-0.078125-0.066406-0.15625-0.085937-0.23047-0.066406-0.23828-0.12109-0.47266-0.12109-0.69922 0-0.25 0.050781-0.51953 0.14062-0.78906zm61.242 10.211v10.727c0 4.1445-11.953 10.164-30.688 10.164v-13.875c11.586 0 23.613-2.4219 30.688-7.0156zm-95.766 4.918c-0.17188-0.027343-0.33594-0.066406-0.50391-0.089843 0.17188 0.027343 0.33594 0.0625 0.50391 0.089843zm2.5547 0.47656c-0.023437-0.007813-0.046875-0.011719-0.066406-0.015625 0.019531 0.003906 0.042969 0.011719 0.066406 0.015625zm-46.695 14.035c0.082032-0.24219 0.20703-0.48828 0.35938-0.73828 0.054687-0.082031 0.12891-0.17188 0.19141-0.25781 0.11719-0.16406 0.23047-0.32812 0.37891-0.49219 0.09375-0.10547 0.20703-0.21484 0.3125-0.32422 0.14062-0.14062 0.28516-0.28516 0.45312-0.43359 0.13672-0.12109 0.28516-0.24219 0.44141-0.35938 0.16016-0.13281 0.32812-0.25781 0.50781-0.38672 0.1875-0.13672 0.38281-0.26953 0.58984-0.40234 0.16797-0.10938 0.34766-0.21875 0.52734-0.32812 0.24219-0.14844 0.48828-0.29297 0.75781-0.4375 0.16016-0.085938 0.33594-0.17578 0.50391-0.26562 0.3125-0.16016 0.62891-0.32422 0.96875-0.47656 0.12109-0.058594 0.24609-0.10938 0.36719-0.16406 3.3906-1.5273 8.0117-2.8398 13.637-3.6016 0.019532-0.003906 0.039063-0.007812 0.058594-0.007812 0.80469-0.10938 1.6328-0.20703 2.4805-0.28516 0.035156-0.003906 0.066406-0.007812 0.10156-0.007812 0.85156-0.082031 1.7188-0.15625 2.6055-0.21094h0.007812c1.707-0.10937 3.4648-0.17969 5.3086-0.17969 1.9336 0 3.7969 0.066406 5.5781 0.1875 2.9844 0.19922 5.7422 0.5625 8.2617 1.0312 0.17578 0.03125 0.34766 0.066406 0.52344 0.10156 1.9961 0.38672 3.832 0.85156 5.4961 1.3594 0.16797 0.050782 0.33594 0.10547 0.50781 0.15625 0.80469 0.25781 1.582 0.52734 2.3047 0.80469 0.007813 0.003906 0.015625 0.007812 0.027344 0.011719 0.69531 0.26953 1.3398 0.55859 1.9492 0.84375 0.14844 0.070312 0.29688 0.14062 0.44531 0.21094 0.59766 0.29297 1.1641 0.59375 1.6719 0.89453 0.011719 0.007812 0.027344 0.019531 0.042969 0.027343 0.48828 0.29297 0.91797 0.58984 1.3203 0.89062 0.10547 0.082032 0.21094 0.15625 0.30859 0.23828 0.38281 0.30859 0.74219 0.61719 1.0312 0.92187 0.80469 0.85938 1.2266 1.7031 1.2266 2.4805 0 4.1484-11.957 10.168-30.691 10.168-1.3867 0-2.7188-0.042969-4.0273-0.10547-0.39453-0.015625-0.76953-0.046875-1.1562-0.066406-0.9375-0.058594-1.8555-0.13281-2.75-0.21875-0.36719-0.035156-0.73828-0.070313-1.0977-0.11328-1.0469-0.12109-2.0703-0.25781-3.0586-0.41406-0.13281-0.019531-0.26953-0.035156-0.40234-0.058593-1.1562-0.19141-2.2578-0.40234-3.3164-0.64063-0.15625-0.03125-0.29688-0.070312-0.44922-0.10547-0.91016-0.21094-1.7812-0.43359-2.6094-0.67188-0.16406-0.046875-0.32812-0.09375-0.48828-0.14062-4.4414-1.3164-7.707-2.9844-9.5586-4.6445-0.070312-0.066406-0.13672-0.12891-0.20312-0.19531-0.16797-0.15625-0.33203-0.31641-0.47266-0.47266-0.1875-0.20703-0.35547-0.41406-0.49219-0.61719-0.066406-0.089844-0.10547-0.17969-0.15625-0.26953-0.09375-0.16797-0.17969-0.33594-0.24609-0.5-0.03125-0.078125-0.066407-0.15625-0.085938-0.23047-0.066406-0.23828-0.12109-0.47266-0.12109-0.69922-0.011718-0.26563 0.035156-0.53125 0.12891-0.80469zm61.242 10.215v10.727c0 4.1445-11.953 10.164-30.688 10.164v-13.875c11.586 0 23.609-2.4219 30.688-7.0156zm-67.648-0.78906v11.516c0 10.672 19.039 16.43 36.953 16.43 17.918 0 36.957-5.7617 36.957-16.43v-20.145c0-0.66797-0.074219-1.3164-0.21484-1.9453-0.28906-1.2578-0.85547-2.4336-1.6562-3.5352-0.40234-0.55078-0.86328-1.082-1.3789-1.5938-0.36719-0.36328-0.76562-0.71484-1.1914-1.0625-0.15625-0.13281-0.33984-0.25391-0.50781-0.38281-0.26953-0.20703-0.53906-0.41016-0.82812-0.60547-0.23047-0.16016-0.47656-0.3125-0.72266-0.46484-0.24609-0.15625-0.48828-0.30859-0.74609-0.46094-0.28906-0.17188-0.59766-0.33594-0.90234-0.5-0.21875-0.12109-0.44531-0.23438-0.67578-0.35156-0.34766-0.17578-0.71094-0.34766-1.0781-0.51562-0.19531-0.089844-0.39453-0.17969-0.59375-0.26953-0.41406-0.17969-0.83203-0.35938-1.2656-0.52734-0.15625-0.066406-0.32031-0.125-0.47656-0.1875-0.48047-0.17969-0.96484-0.35938-1.4609-0.53125-0.11328-0.039062-0.22656-0.070312-0.33594-0.11328-0.41797-0.13672-0.85156-0.27344-1.2852-0.41016l20.078-7.5625v11.512c0 10.672 19.039 16.43 36.953 16.43 17.914 0 36.957-5.7617 36.957-16.43v-10.703l20.164 7.7188c-6.6562 2.1367-11.84 5.3164-13.797 9.4805-0.5625 1.1758-0.85938 2.4336-0.85938 3.7695v20.141c0 10.672 19.035 16.43 36.949 16.43 17.926 0 36.961-5.7578 36.961-16.43v-10.707l32.887 12.59-106.15 40-42.348 15.957-68.312-26.148-81.715-31.281zm270.57 140.84-151.06 56.918v-122.14l151.07-56.918z" fill="#00c6f4"/>
 </g>
</svg>
