<?xml version="1.0" encoding="UTF-8"?>
<svg width="512pt" height="512pt" version="1.1" viewBox="0 0 512 512" xmlns="http://www.w3.org/2000/svg">
 <g>
  <path d="m512 256c0 141.39-114.61 256-256 256s-256-114.61-256-256 114.61-256 256-256 256 114.61 256 256" fill="#ff001b"/>
  <path d="m381.11 398.52h-249.57c-10.965 0-19.992-10.965-19.992-24.184v-233.77c0-13.219 9.0273-24.184 19.992-24.184h249.57c10.965 0 19.992 10.965 19.992 24.184v233.77c0 13.219-9.0273 24.184-19.992 24.184zm-249.57-276.65c-8.0625 0-14.188 8.3828-14.188 18.379v233.77c0 10.316 6.4492 18.379 14.188 18.379h249.57c8.0625 0 14.188-8.3828 14.188-18.379v-233.45c0-10.316-6.4492-18.379-14.188-18.379h-249.57z" fill="#fff"/>
  <path d="m167.33 214.41c0 5.4805-4.5156 9.6719-9.6719 9.6719h-2.9023c-5.1602 0-9.6719-4.1914-9.6719-9.6719v-2.9023c0-5.4805 4.5156-9.6719 9.6719-9.6719h2.9023c5.1602 0 9.6719 4.1914 9.6719 9.6719z" fill="#fff"/>
  <path d="m200.54 214.41c0 5.4805-4.5156 9.6719-9.6719 9.6719h-2.5781c-5.1602 0-9.6719-4.1914-9.6719-9.6719v-2.9023c0-5.4805 4.5156-9.6719 9.6719-9.6719h2.9023c5.1602 0 9.6719 4.1914 9.6719 9.6719v2.9023z" fill="#fff"/>
  <path d="m234.07 214.41c0 5.4805-4.5156 9.6719-9.6719 9.6719h-2.9023c-5.1602 0-9.6719-4.1914-9.6719-9.6719v-2.9023c0-5.4805 4.5156-9.6719 9.6719-9.6719h2.9023c5.1602 0 9.6719 4.1914 9.6719 9.6719z" fill="#fff"/>
  <path d="m267.29 214.41c0 5.4805-4.5156 9.6719-9.6719 9.6719h-2.9023c-5.4805 0-9.6719-4.1914-9.6719-9.6719v-2.9023c0-5.4805 4.1914-9.6719 9.6719-9.6719h2.9023c5.1602 0 9.6719 4.1914 9.6719 9.6719z" fill="#fff"/>
  <path d="m300.5 214.41c0 5.4805-4.1914 9.6719-9.6719 9.6719h-2.582c-5.4805 0-9.6719-4.1914-9.6719-9.6719v-2.9023c0-5.4805 4.1914-9.6719 9.6719-9.6719h2.9023c5.4805 0 9.6719 4.1914 9.6719 9.6719l0.003906 2.9023z" fill="#fff"/>
  <path d="m334.03 214.41c0 5.4805-4.1914 9.6719-9.6719 9.6719h-2.9023c-5.4805 0-9.6719-4.1914-9.6719-9.6719v-2.9023c0-5.4805 4.1914-9.6719 9.6719-9.6719h2.9023c5.4805 0 9.6719 4.1914 9.6719 9.6719z" fill="#fff"/>
  <path d="m367.24 214.41c0 5.4805-4.1914 9.6719-9.6719 9.6719h-2.9023c-5.4805 0-9.6719-4.1914-9.6719-9.6719v-2.9023c0-5.4805 4.1914-9.6719 9.6719-9.6719h2.9023c5.4805 0 9.6719 4.1914 9.6719 9.6719z" fill="#fff"/>
  <path d="m167.33 249.23c0 5.4805-4.5156 9.6719-9.6719 9.6719h-2.9023c-5.1602 0-9.6719-4.1914-9.6719-9.6719v-2.9023c0-5.4805 4.5156-9.6719 9.6719-9.6719h2.9023c5.1602 0 9.6719 4.1914 9.6719 9.6719z" fill="#fff"/>
  <path d="m200.54 249.23c0 5.4805-4.5156 9.6719-9.6719 9.6719h-2.5781c-5.1602 0-9.6719-4.1914-9.6719-9.6719l-0.003907-2.9023c0-5.4805 4.5156-9.6719 9.6719-9.6719h2.9023c5.1602 0 9.6719 4.1914 9.6719 9.6719l0.003906 2.9023z" fill="#fff"/>
  <path d="m234.07 249.23c0 5.4805-4.5156 9.6719-9.6719 9.6719h-2.9023c-5.1602 0-9.6719-4.1914-9.6719-9.6719v-2.9023c0-5.4805 4.5156-9.6719 9.6719-9.6719h2.9023c5.1602 0 9.6719 4.1914 9.6719 9.6719z" fill="#fff"/>
  <path d="m267.29 249.23c0 5.4805-4.5156 9.6719-9.6719 9.6719h-2.9023c-5.4805 0-9.6719-4.1914-9.6719-9.6719v-2.9023c0-5.4805 4.1914-9.6719 9.6719-9.6719h2.9023c5.1602 0 9.6719 4.1914 9.6719 9.6719z" fill="#fff"/>
  <path d="m300.5 249.23c0 5.4805-4.1914 9.6719-9.6719 9.6719h-2.582c-5.4805 0-9.6719-4.1914-9.6719-9.6719v-2.9023c0-5.4805 4.1914-9.6719 9.6719-9.6719h2.9023c5.4805 0 9.6719 4.1914 9.6719 9.6719l0.003906 2.9023z" fill="#fff"/>
  <path d="m334.03 249.23c0 5.4805-4.1914 9.6719-9.6719 9.6719h-2.9023c-5.4805 0-9.6719-4.1914-9.6719-9.6719l-0.003906-2.9023c0-5.4805 4.1914-9.6719 9.6719-9.6719h2.9023c5.4805 0 9.6719 4.1914 9.6719 9.6719z" fill="#fff"/>
  <path d="m367.24 249.23c0 5.4805-4.1914 9.6719-9.6719 9.6719h-2.9023c-5.4805 0-9.6719-4.1914-9.6719-9.6719l-0.003906-2.9023c0-5.4805 4.1914-9.6719 9.6719-9.6719h2.9023c5.4805 0 9.6719 4.1914 9.6719 9.6719z" fill="#fff"/>
  <path d="m167.33 283.73c0 5.1602-4.5156 9.6719-9.6719 9.6719h-2.9023c-5.1602 0-9.6719-4.5156-9.6719-9.6719v-2.9023c0-5.1602 4.5156-9.6719 9.6719-9.6719h2.9023c5.1602 0 9.6719 4.5156 9.6719 9.6719z" fill="#fff"/>
  <path d="m200.54 283.73c0 5.1602-4.5156 9.6719-9.6719 9.6719h-2.5781c-5.1602 0-9.6719-4.5156-9.6719-9.6719v-2.9023c0-5.1602 4.5156-9.6719 9.6719-9.6719h2.9023c5.1602 0 9.6719 4.5156 9.6719 9.6719v2.9023z" fill="#fff"/>
  <path d="m234.07 283.73c0 5.1602-4.5156 9.6719-9.6719 9.6719h-2.9023c-5.1602 0-9.6719-4.5156-9.6719-9.6719v-2.9023c0-5.1602 4.5156-9.6719 9.6719-9.6719h2.9023c5.1602 0 9.6719 4.5156 9.6719 9.6719z" fill="#fff"/>
  <path d="m267.29 283.73c0 5.1602-4.5156 9.6719-9.6719 9.6719h-2.9023c-5.4805 0-9.6719-4.5156-9.6719-9.6719v-2.9023c0-5.1602 4.1914-9.6719 9.6719-9.6719h2.9023c5.1602 0 9.6719 4.5156 9.6719 9.6719z" fill="#fff"/>
  <path d="m300.5 283.73c0 5.1602-4.1914 9.6719-9.6719 9.6719h-2.582c-5.4805 0-9.6719-4.5156-9.6719-9.6719v-2.9023c0-5.1602 4.1914-9.6719 9.6719-9.6719h2.9023c5.4805 0 9.6719 4.5156 9.6719 9.6719l0.003906 2.9023z" fill="#fff"/>
  <path d="m334.03 283.73c0 5.1602-4.1914 9.6719-9.6719 9.6719h-2.9023c-5.4805 0-9.6719-4.5156-9.6719-9.6719v-2.9023c0-5.1602 4.1914-9.6719 9.6719-9.6719h2.9023c5.4805 0 9.6719 4.5156 9.6719 9.6719z" fill="#fff"/>
  <path d="m367.24 283.73c0 5.1602-4.1914 9.6719-9.6719 9.6719h-2.9023c-5.4805 0-9.6719-4.5156-9.6719-9.6719v-2.9023c0-5.1602 4.1914-9.6719 9.6719-9.6719h2.9023c5.4805 0 9.6719 4.5156 9.6719 9.6719z" fill="#fff"/>
  <path d="m167.33 318.55c0 5.4805-4.5156 9.6719-9.6719 9.6719h-2.9023c-5.1602 0-9.6719-4.1914-9.6719-9.6719v-2.9023c0-5.4805 4.5156-9.6719 9.6719-9.6719h2.9023c5.1602 0 9.6719 4.1914 9.6719 9.6719z" fill="#fff"/>
  <path d="m200.54 318.55c0 5.4805-4.5156 9.6719-9.6719 9.6719h-2.5781c-5.1602 0-9.6719-4.1914-9.6719-9.6719v-2.9023c0-5.4805 4.5156-9.6719 9.6719-9.6719h2.9023c5.1602 0 9.6719 4.1914 9.6719 9.6719v2.9023z" fill="#fff"/>
  <path d="m234.07 318.55c0 5.4805-4.5156 9.6719-9.6719 9.6719h-2.9023c-5.1602 0-9.6719-4.1914-9.6719-9.6719v-2.9023c0-5.4805 4.5156-9.6719 9.6719-9.6719h2.9023c5.1602 0 9.6719 4.1914 9.6719 9.6719z" fill="#fff"/>
  <path d="m267.29 318.55c0 5.4805-4.5156 9.6719-9.6719 9.6719h-2.9023c-5.4805 0-9.6719-4.1914-9.6719-9.6719v-2.9023c0-5.4805 4.1914-9.6719 9.6719-9.6719h2.9023c5.1602 0 9.6719 4.1914 9.6719 9.6719z" fill="#fff"/>
  <path d="m300.5 318.55c0 5.4805-4.1914 9.6719-9.6719 9.6719h-2.582c-5.4805 0-9.6719-4.1914-9.6719-9.6719v-2.9023c0-5.4805 4.1914-9.6719 9.6719-9.6719h2.9023c5.4805 0 9.6719 4.1914 9.6719 9.6719l0.003906 2.9023z" fill="#fff"/>
  <path d="m334.03 318.55c0 5.4805-4.1914 9.6719-9.6719 9.6719h-2.9023c-5.4805 0-9.6719-4.1914-9.6719-9.6719v-2.9023c0-5.4805 4.1914-9.6719 9.6719-9.6719h2.9023c5.4805 0 9.6719 4.1914 9.6719 9.6719z" fill="#fff"/>
  <path d="m367.24 318.55c0 5.4805-4.1914 9.6719-9.6719 9.6719h-2.9023c-5.4805 0-9.6719-4.1914-9.6719-9.6719v-2.9023c0-5.4805 4.1914-9.6719 9.6719-9.6719h2.9023c5.4805 0 9.6719 4.1914 9.6719 9.6719z" fill="#fff"/>
  <path d="m167.33 353.05c0 5.4805-4.5156 9.6719-9.6719 9.6719h-2.9023c-5.1602 0-9.6719-4.1914-9.6719-9.6719v-2.9023c0-5.4805 4.5156-9.6719 9.6719-9.6719h2.9023c5.1602 0 9.6719 4.1914 9.6719 9.6719z" fill="#fff"/>
  <path d="m200.54 353.05c0 5.4805-4.5156 9.6719-9.6719 9.6719h-2.5781c-5.1602 0-9.6719-4.1914-9.6719-9.6719v-2.9023c0-5.4805 4.5156-9.6719 9.6719-9.6719h2.9023c5.1602 0 9.6719 4.1914 9.6719 9.6719v2.9023z" fill="#fff"/>
  <path d="m267.29 162.49c0 5.1602-4.1914 9.6719-9.6719 9.6719l-102.86 0.003907c-5.4805 0-9.6719-4.5156-9.6719-9.6719v-3.2227c0-5.1602 4.1914-9.6719 9.6719-9.6719h102.86c5.4805 0 9.6719 4.5156 9.6719 9.6719z" fill="#fff"/>
 </g>
</svg>
