<?xml version="1.0" encoding="UTF-8"?>
<svg width="512pt" height="512pt" version="1.1" viewBox="0 0 512 512" xmlns="http://www.w3.org/2000/svg">
 <g>
  <path d="m512 256c0 141.39-114.61 256-256 256s-256-114.61-256-256 114.61-256 256-256 256 114.61 256 256" fill="#fff"/>
  <path d="m355.63 241.17c0-1.6133-0.64453-2.9023-1.9336-3.8711l-33.855-23.215c-2.2578-1.6133-4.5156-0.32422-5.1602 0-1.6133 0.96875-2.2578 2.9023-1.9336 4.8359l7.4141 40.309c0.32422 1.2891 1.2891 2.5781 2.5781 3.2227 1.2891 0.64453 2.9023 0.64453 4.1914-0.32422l8.0625-5.1602 13.543 20.957c1.9336 2.9023 6.125 3.8711 9.0273 1.9336 2.9023-1.9336 3.8711-6.125 1.9336-9.0273l-13.543-20.957 8.0625-5.1602c0.96875-0.96484 1.6133-2.2539 1.6133-3.543z" fill="#00c6f4"/>
  <path d="m392.71 139.92h-189.27c-9.0273 0-16.445 7.418-16.445 16.445v63.52c2.2578 0.64453 4.1914 1.2891 6.4492 2.2578 4.8359-1.6133 9.6719-3.5469 14.508-4.8359v-29.344h179.6l0.003907 116.4c0 0.64453-0.32422 1.2891-1.2891 1.2891h-84.48v21.281h90.926c9.0273 0 16.445-7.418 16.445-16.445l0.003906-154.12c0-9.0273-7.418-16.445-16.445-16.445zm-178.63 31.277c-3.8711 0-7.0938-3.2227-7.0938-7.0938 0-3.8711 3.2227-7.0938 7.0938-7.0938 3.8711 0 7.0938 3.2227 7.0938 7.0938 0 3.8711-3.2227 7.0938-7.0938 7.0938zm21.605 0c-3.8711 0-7.0938-3.2227-7.0938-7.0938 0-3.8711 3.2227-7.0938 7.0938-7.0938s7.0938 3.2227 7.0938 7.0938c0 3.8711-3.2266 7.0938-7.0938 7.0938zm21.602 0c-3.8711 0-7.0938-3.2227-7.0938-7.0938 0-3.8711 3.2227-7.0938 7.0938-7.0938 3.8711 0 7.0938 3.2227 7.0938 7.0938-0.32031 3.8711-3.2227 7.0938-7.0938 7.0938z" fill="#00c6f4"/>
  <path d="m279.21 240.2c-2.2578 0-4.5156 0-6.7695 0.32422h-0.32422v-8.707c0-2.9023-2.2578-5.1602-5.1602-5.1602-25.148 0-49.977 4.8359-73.195 14.508-23.215-9.6719-48.043-14.508-73.195-14.508-2.9023 0-5.1602 2.2578-5.1602 5.1602v8.707h-0.32422c-2.2578 0-4.5156-0.32422-6.7695-0.32422-2.9023 0-5.1602 2.2578-5.1602 5.1602l0.007812 104.15c0 2.9023 2.2578 5.1602 5.1602 5.1602 29.02 0 57.07 5.8047 83.512 17.09 0.64453 0.32422 1.2891 0.32422 1.9336 0.32422s1.2891 0 1.9336-0.32422c26.441-11.285 54.816-17.09 83.512-17.09 2.9023 0 5.1602-2.2578 5.1602-5.1602v-104.15c0-2.9023-2.2578-5.1602-5.1602-5.1602zm-90.605 108.34c-20.312-7.7383-41.594-11.93-62.875-12.574v-98.988c21.602 0.64453 42.562 5.1602 62.875 13.219zm73.195-12.574c-21.281 0.64453-42.562 4.8359-62.875 12.574v-98.344c20.312-8.3828 41.594-12.898 62.875-13.219z" fill="#00c6f4"/>
  <path d="m139.6 262.77c10.965 1.2891 21.926 3.5469 32.566 6.4492 0.32422 0 0.96875 0.32422 1.6133 0.32422 2.2578 0 4.1914-1.6133 4.8359-3.5469 0.64453-2.5781-0.64453-5.4805-3.5469-6.4492-11.285-3.2227-22.895-5.8047-34.5-7.0938-2.9023-0.32422-5.4805 1.9336-5.4805 4.5156 0 1.2891 0.32422 2.5781 0.96875 3.8711 0.96094 0.96094 2.25 1.6055 3.543 1.9297z" fill="#00c6f4"/>
  <path d="m139.6 282.44c10.965 1.2891 21.926 3.5469 32.566 6.4492 0.32422 0 0.96875 0.32422 1.6133 0.32422 2.2578 0 4.1914-1.6133 4.8359-3.5469 0.64453-2.5781-0.64453-5.4805-3.5469-6.4492-11.285-3.2227-22.895-5.8047-34.5-7.0938-2.9023-0.32422-5.4805 1.6133-5.8047 4.5156 0 1.2891 0.32422 2.5781 0.96875 3.8711 1.2852 1.2852 2.5742 1.9297 3.8672 1.9297z" fill="#00c6f4"/>
  <path d="m139.6 302.11c10.965 1.2891 21.926 3.5469 32.566 6.4492 0.32422 0 0.96875 0.32422 1.6133 0.32422 2.2578 0 4.1914-1.6133 4.8359-3.5469 0.64453-2.5781-0.64453-5.4805-3.5469-6.4492-11.285-3.2227-22.895-5.8047-34.5-7.0938-2.9023-0.32422-5.4805 1.9336-5.4805 4.5156 0 1.2891 0.32422 2.5781 0.96875 3.8711 0.96094 1.2852 2.25 1.9297 3.543 1.9297z" fill="#00c6f4"/>
  <path d="m139.6 322.1c10.965 1.2891 21.926 3.5469 32.566 6.4492 0.32422 0 0.96875 0.32422 1.6133 0.32422 2.2578 0 4.1914-1.6133 4.8359-3.5469 0.64453-2.5781-0.64453-5.4805-3.5469-6.4492-11.285-3.2227-22.895-5.8047-34.5-7.0938-2.9023-0.32422-5.4805 1.6133-5.8047 4.5156 0 1.2891 0.32422 2.5781 0.96875 3.8711 1.2852 0.96094 2.5742 1.6055 3.8672 1.9297z" fill="#00c6f4"/>
  <path d="m213.44 269.54c0.64453 0 0.96875 0 1.6133-0.32422 10.641-3.2227 21.602-5.4805 32.566-6.4492 1.2891 0 2.5781-0.96875 3.5469-1.9336 0.96875-0.96875 1.2891-2.2578 0.96875-3.8711-0.32422-2.9023-2.5781-4.8359-5.8047-4.5156-11.609 1.2891-23.215 3.5469-34.5 7.0938-1.2891 0.32422-2.2578 1.2891-2.9023 2.5781-0.64453 1.2891-0.64453 2.5781-0.32422 3.8711 0.64453 1.9375 2.5781 3.5508 4.8359 3.5508z" fill="#00c6f4"/>
  <path d="m246.65 272.45c-11.609 1.2891-23.215 3.5469-34.5 7.0938-2.5781 0.96875-4.1914 3.5469-3.5469 6.4492 0.64453 2.2578 2.5781 3.5469 4.8359 3.5469 0.64453 0 0.96875 0 1.6133-0.32422 10.641-3.2227 21.602-5.4805 32.566-6.4492 1.2891 0 2.5781-0.96875 3.5469-1.9336 0.96875-0.96875 1.2891-2.2578 0.96875-3.8711-0.32422-2.8984-2.9023-4.8359-5.4844-4.5117z" fill="#00c6f4"/>
  <path d="m213.44 309.2c0.64453 0 0.96875 0 1.6133-0.32422 10.641-3.2227 21.602-5.4805 32.566-6.4492 1.2891 0 2.5781-0.64453 3.5469-1.9336 0.96875-0.96875 1.2891-2.2578 0.96875-3.8711-0.32422-2.9023-2.5781-4.8359-5.4805-4.5156-11.609 1.2891-23.215 3.5469-34.5 7.0938-1.2891 0.32422-2.2578 1.2891-2.9023 2.5781s-0.64453 2.5781-0.32422 3.8711c0.32031 1.9375 2.2539 3.5508 4.5117 3.5508z" fill="#00c6f4"/>
  <path d="m246.65 311.78c-11.609 1.2891-23.215 3.5469-34.5 7.0938-2.5781 0.96875-4.1914 3.5469-3.5469 6.4492 0.64453 2.2578 2.5781 3.5469 4.8359 3.5469 0.64453 0 0.96875 0 1.6133-0.32422 10.641-3.2227 21.602-5.4805 32.566-6.4492 1.2891 0 2.5781-0.96875 3.5469-1.9336 0.96875-0.96875 1.2891-2.2578 0.96875-3.8711-0.32422-2.8984-2.9023-4.832-5.4844-4.5117z" fill="#00c6f4"/>
 </g>
</svg>
