<?xml version="1.0" encoding="UTF-8"?>
<svg width="512pt" height="512pt" version="1.1" viewBox="0 0 512 512" xmlns="http://www.w3.org/2000/svg">
 <g>
  <path d="m512 256c0 141.39-114.61 256-256 256s-256-114.61-256-256 114.61-256 256-256 256 114.61 256 256" fill="#fff"/>
  <path d="m376.91 218.11h-1.8633c-3.1289-0.007812-6.1836-0.94141-8.7812-2.6797-2.6016-1.7383-4.6289-4.207-5.8281-7.0938v-0.55469c-1.25-3.0078-1.5781-6.3164-0.94141-9.5117 0.63672-3.1914 2.2109-6.125 4.5156-8.4219l1.0586-1.0586c2.9102-2.8438 4.5469-6.7383 4.5469-10.809 0-4.0664-1.6367-7.9609-4.5469-10.805l-25.289-24.789c-2.8438-2.9062-6.7422-4.5469-10.809-4.5469-4.0664 0-7.9609 1.6406-10.805 4.5469l-1.0586 1.0586c-2.3008 2.3008-5.2344 3.8711-8.4258 4.5078-3.1914 0.63281-6.5039 0.3125-9.5117-0.92969-2.9805-1.25-5.5234-3.3516-7.3164-6.0391s-2.7539-5.8438-2.7578-9.0781v-1.8633c0-4.0078-1.5938-7.8516-4.4297-10.688-2.832-2.832-6.6758-4.4258-10.688-4.4258h-35.266c-4.0078 0-7.8516 1.5938-10.688 4.4258-2.832 2.8359-4.4258 6.6797-4.4258 10.688v1.8633c0 3.1367-0.92578 6.2031-2.6641 8.8125-1.7422 2.6094-4.2148 4.6445-7.1094 5.8516l-0.95703 0.40234c-2.8984 1.1992-6.0859 1.5156-9.1602 0.90625-3.0742-0.61328-5.9023-2.1172-8.1211-4.332l-1.3086-1.3086v-0.003907c-2.8438-2.9062-6.7422-4.5469-10.809-4.5469-4.0664 0-7.9609 1.6406-10.805 4.5469l-24.789 24.789c-2.9102 2.8438-4.5469 6.7383-4.5469 10.809 0 4.0664 1.6367 7.9609 4.5469 10.805l1.3086 1.3086c2.2148 2.2227 3.7227 5.0469 4.332 8.1211 0.60937 3.0781 0.29687 6.2656-0.90625 9.1602v0.55469c-1.2461 2.9805-3.3477 5.5273-6.0352 7.3164-2.6875 1.793-5.8477 2.7539-9.0781 2.7617h-2.418c-4.0078 0-7.8516 1.5898-10.688 4.4258-2.8359 2.8359-4.4258 6.6797-4.4258 10.688v35.266c0 4.0078 1.5898 7.8555 4.4258 10.688 2.8359 2.8359 6.6797 4.4258 10.688 4.4258h1.8633c3.1289 0.011719 6.1836 0.94141 8.7812 2.6797 2.6016 1.7383 4.6289 4.207 5.832 7.0977v0.55469-0.003906c1.2461 3.0078 1.5742 6.3203 0.9375 9.5117-0.63672 3.1953-2.2109 6.1289-4.5156 8.4258l-1.0586 1.0586c-2.9102 2.8438-4.5469 6.7383-4.5469 10.805 0 4.0703 1.6367 7.9648 4.5469 10.809 2.0312 2.3477 5.1523 3.4453 8.207 2.8867 3.0547-0.55859 5.5859-2.6914 6.6562-5.6094 5.1602-13.199 13.258-25.051 23.68-34.66 2.3242-2.0586 3.9414-4.7969 4.6172-7.8281 0.67969-3.0312 0.38672-6.1953-0.83984-9.0508-4.6367-10.496-6.6914-21.949-5.9961-33.402 0.77344-25.98 15.352-49.578 38.238-61.898 22.887-12.32 50.609-11.496 72.727 2.168 22.113 13.66 35.258 38.082 34.484 64.062 0.007812 10.031-2.0859 19.949-6.1445 29.121-1.1914 2.8672-1.4492 6.0352-0.73438 9.0586 0.71484 3.0195 2.3633 5.7383 4.7148 7.7695 10.418 9.6094 18.516 21.461 23.676 34.66 1.0703 2.7773 3.4727 4.8242 6.3828 5.4336s5.9336-0.29688 8.0273-2.4102c2.9102-2.8438 4.5469-6.7383 4.5469-10.805 0-4.0703-1.6367-7.9648-4.5469-10.809l-1.0586-1.0586c-2.3047-2.2969-3.8789-5.2305-4.5156-8.4219-0.63672-3.1953-0.30859-6.5039 0.94141-9.5117 1.2539-2.9766 3.3555-5.5195 6.043-7.3086 2.6836-1.793 5.8398-2.7539 9.0703-2.7695h1.8125c4.0078 0 7.8516-1.5898 10.688-4.4258 2.8359-2.8359 4.4258-6.6797 4.4258-10.688v-35.266c0.082031-4.0625-1.4727-7.9844-4.3164-10.883-2.8438-2.9023-6.7344-4.5352-10.797-4.5352z" fill="#00c6f4"/>
  <path d="m266.08 371.88c0 5.5664-4.5117 10.078-10.078 10.078s-10.074-4.5117-10.074-10.078c0-5.5625 4.5078-10.074 10.074-10.074s10.078 4.5117 10.078 10.074" fill="#00c6f4"/>
  <path d="m280.48 293.59c-3.2266-0.96875-5.9648-3.1328-7.6562-6.0469 11.215-5.1641 19.445-15.184 22.336-27.188 2.8867-12.008 0.10938-24.672-7.5312-34.371-7.6445-9.6992-19.309-15.359-31.656-15.359-12.348 0-24.016 5.6602-31.66 15.359-7.6406 9.6992-10.414 22.363-7.5273 34.371 2.8867 12.004 11.117 22.023 22.332 27.188-1.6875 2.9141-4.4258 5.0781-7.6562 6.0469-32.648 9.875-56.074 37.582-56.074 73.809 0.14453 5.2461 2.332 10.23 6.0938 13.891 3.7656 3.6602 8.8086 5.707 14.059 5.707h14.41c2.5938 0 5.0469-1.1953 6.6406-3.2461 1.5977-2.0469 2.1562-4.7188 1.5195-7.2344l-3.8789-15.418c-0.86719-3.4609-0.09375-7.1289 2.1016-9.9453 2.1953-2.8164 5.5625-4.4609 9.1328-4.4609h61.062c3.5703 0 6.9375 1.6445 9.1328 4.4609 2.1953 2.8164 2.9727 6.4844 2.1016 9.9453l-3.8789 15.418c-0.63672 2.5156-0.078125 5.1875 1.5195 7.2344 1.5938 2.0508 4.0469 3.2461 6.6406 3.2461h14.41c5.25 0 10.293-2.0469 14.059-5.707 3.7617-3.6602 5.9492-8.6445 6.0938-13.891 0-36.227-23.426-63.934-56.125-73.809z" fill="#00c6f4"/>
 </g>
</svg>
