<?xml version="1.0" encoding="UTF-8"?>
<svg width="512pt" height="512pt" version="1.1" viewBox="0 0 512 512" xmlns="http://www.w3.org/2000/svg">
 <defs>
  <clipPath id="a">
   <path d="m94.781 126h322.44v213h-322.44z"/>
  </clipPath>
 </defs>
 <path d="m512 256c0 141.39-114.61 256-256 256s-256-114.61-256-256 114.61-256 256-256 256 114.61 256 256" fill="#fff"/>
 <path d="m161.25 301.5-58.562 52.641h0.20312l-0.20312 0.042969s22.285 37.863 154.31 30.23c129.25 7.0469 151.85-29.801 152.13-30.27h0.20312l-58.523-52.645-94.758 2.0156z" fill="#00c6f4"/>
 <g clip-path="url(#a)">
  <path d="m94.781 126.58v130.29l24.059 7.7734c33.395-23.223 60.348-80.504 72.422-113.72-2.4688-2-4.9766-4.3867-7.5664-7.2344-0.69141 0.80078-2.6523 3.0078-5.8438 5.7148-9.6094 31.52-28.609 59.902-47.336 88.383 16.855-28.566 32.977-52.172 42.156-84.438-1.5938 1.0859-3.3477 2.1211-5.2227 3.1289-9.5234 31.867-28.684 60.539-47.582 89.285 16.906-28.656 33.797-54.609 42.977-87.066-2.0078 0.82422-4.1484 1.543-6.375 2.0977-9.4141 32.285-28.805 61.223-47.914 90.273 17.004-28.812 34.934-56.758 44.086-89.492-15.617 2.3867-35.605-3.7656-56.551-34.094 4.3398 5.9453 36.516 47.551 72.098 26.035l0.20312-0.12109c4.5156-2.7617 9.0781-6.5547 13.656-11.555-3.4805-4.0547-7.082-8.9102-10.734-14.723 1.9062 2.7969 9.8906 13.879 20.73 21.754 0.003906-0.011719-0.003907-0.027344 0-0.042969 0.41406 0.32422 0.82031 0.62891 1.2305 0.94922 22.727 17.445 43.934 23.453 62.719 23.031 18.785 0.42578 39.996-5.5859 62.719-23.031 0.41406-0.32031 0.82031-0.61719 1.2344-0.94922 0.007813 0.011719-0.003906 0.027344 0 0.042969 10.836-7.8789 18.824-18.957 20.73-21.754-3.6484 5.8164-7.25 10.668-10.734 14.723 4.5742 5 9.1367 8.7969 13.652 11.555l0.20703 0.12109c35.582 21.516 67.758-20.09 72.094-26.035-20.945 30.328-40.934 36.48-56.551 34.094 9.1523 32.734 27.086 60.68 44.086 89.492-19.109-29.051-38.496-57.988-47.91-90.273-2.2266-0.55469-4.3672-1.2734-6.375-2.0977 9.1797 32.461 26.074 58.414 42.973 87.066-18.898-28.746-38.059-57.422-47.582-89.285-1.875-1.0078-3.6289-2.043-5.2227-3.1289 9.1836 32.262 25.297 55.867 42.156 84.438-18.73-28.48-37.727-56.863-47.34-88.383-3.1875-2.707-5.1484-4.9141-5.8398-5.7148-2.5938 2.8477-5.0938 5.2383-7.5703 7.2344 12.078 33.219 39.031 90.496 72.426 113.72l24.059-7.7734v-130.29zm0 134.69v76.824c13.16-5.6406 30.051-17.859 34.754-26.32 1.4922-14.93-6.9727-34.977-10.57-42.691zm322.44 0-24.184 7.8125c-3.5938 7.7188-12.062 27.762-10.566 42.691 4.6992 8.4609 21.586 20.68 34.75 26.32z" fill="#00c6f4"/>
 </g>
</svg>
