<?xml version="1.0" encoding="UTF-8"?>
<svg width="512pt" height="512pt" version="1.1" viewBox="0 0 512 512" xmlns="http://www.w3.org/2000/svg">
 <g>
  <path d="m512 256c0 141.39-114.61 256-256 256s-256-114.61-256-256 114.61-256 256-256 256 114.61 256 256" fill="#fff"/>
  <path d="m110.9 138.55v30.551c0 1.7422 1.4141 3.1602 3.1602 3.1602h283.88c1.7461 0 3.1602-1.418 3.1602-3.1602v-30.551c0-0.83594-0.33203-1.6406-0.92578-2.2344-0.59375-0.58984-1.3945-0.92578-2.2344-0.92578h-283.88c-0.83594 0-1.6406 0.33594-2.2344 0.92578-0.59375 0.59375-0.92578 1.3984-0.92578 2.2344zm217.46 21.664v0.003906c-3.2812 0.83984-6.7188-0.61719-8.3945-3.5625-1.6758-2.9414-1.1797-6.6406 1.2148-9.0352 2.3984-2.3945 6.0977-2.8906 9.0391-1.2109 2.9414 1.6758 4.3984 5.1172 3.5547 8.3945-0.68359 2.6562-2.7578 4.7305-5.4141 5.4141zm26.762 0v0.003906c-3.2773 0.83984-6.7188-0.61719-8.3945-3.5625-1.6758-2.9414-1.1797-6.6406 1.2188-9.0352 2.3945-2.3945 6.0938-2.8906 9.0352-1.2109 2.9453 1.6758 4.3984 5.1172 3.5547 8.3945-0.67969 2.6523-2.75 4.7266-5.3984 5.4141zm26.762 0 0.003906 0.003906c-3.2812 0.83984-6.7188-0.61719-8.3984-3.5586-1.6758-2.9414-1.1797-6.6445 1.2148-9.0391 2.3945-2.3945 6.0977-2.8906 9.0391-1.2148 2.9414 1.6797 4.3984 5.1172 3.5586 8.3984-0.67969 2.6484-2.7422 4.7227-5.3906 5.4141z" fill="#00c6f4"/>
  <path d="m110.9 180.16v193.29c0 1.7461 1.4141 3.1602 3.1602 3.1602h283.88c1.7461 0 3.1602-1.4141 3.1602-3.1602v-193.29c0-0.83984-0.33203-1.6406-0.92578-2.2344s-1.3945-0.92578-2.2344-0.92578h-283.88c-0.83594 0-1.6406 0.33203-2.2344 0.92578s-0.92578 1.3945-0.92578 2.2344zm109.83 99.379-0.03125 0.039063-69.113 69.105c-5.0234 5.1914-13.148 5.7656-18.848 1.3281-2.9961-2.4609-4.8164-6.0742-5.0078-9.9492-0.1875-3.8711 1.2656-7.6445 4.0078-10.387l59.887-59.887-59.441-59.457c-5.1914-5.0234-5.7617-13.148-1.3242-18.848 2.4609-3 6.0742-4.8164 9.9453-5.0078 3.875-0.19141 7.6484 1.2656 10.391 4.0078l70.457 70.477c2.5742 2.4688 3.9492 5.9336 3.7734 9.5-0.17969 3.5625-1.8906 6.875-4.6953 9.0781zm122.65 65.777c-0.011718 0.51172-0.15234 1.0156-0.40625 1.4609-1.4609 6.1836-6.9805 10.555-13.336 10.562h-89.555c-6.3555-0.007813-11.875-4.3789-13.336-10.562-0.25781-0.44531-0.39844-0.94922-0.41406-1.4609v-3.4297c0.011718-0.51172 0.15234-1.0156 0.40625-1.4609 1.4609-6.1875 6.9766-10.559 13.332-10.566h89.578c6.3555 0.007813 11.871 4.3789 13.332 10.566 0.25391 0.44531 0.39453 0.94531 0.40625 1.4609z" fill="#00c6f4"/>
 </g>
</svg>
