<?xml version="1.0" encoding="UTF-8"?>
<svg width="512pt" height="512pt" version="1.1" viewBox="0 0 512 512" xmlns="http://www.w3.org/2000/svg">
 <g>
  <path d="m512 256c0 141.39-114.61 256-256 256s-256-114.61-256-256 114.61-256 256-256 256 114.61 256 256" fill="#fff"/>
  <path d="m369.89 283.41v-107.46c0-8.2617-6.6875-14.922-14.922-14.922l-198.05 0.027343c-8.2617 0-14.922 6.6875-14.922 14.922v132.05c0.13672 3.5195 1.6523 6.6875 4.0078 8.9648 2.3555 2.2734 5.5781 3.6836 9.1523 3.6836h77.562c-0.10938 2.9805-1.7617 20.5-21.773 22.965h0.64844c-3.168 0-4.5508 1.5703-4.5781 3.6562 0 2.0586 1.4336 3.6562 4.5781 3.6562h88.559c2.0039 0 3.7383-1.3828 3.7656-3.5469 0.027344-2.707-2.0312-3.5469-3.8438-3.7656-19.824-2.5195-21.395-20.039-21.531-22.965h78.293c7.0938 0 12.863-5.6055 13.16-12.648zm-10.266 3.6836c0 1.4609-1.1914 2.6523-2.6523 2.6523l-40.812 0.003906-19.148 14.84-5.2539 4.0625v-18.93h-136.84c-1.4609 0-2.6523-1.1914-2.6523-2.6523l-0.003906-112.23c0-1.4609 1.1914-2.6523 2.6523-2.6523h36.723c8.3945-3.4648 17.875-5.3086 27.68-5.3086 6.8789 0 13.594 0.89453 19.988 2.6797 2.6523 0.73047 5.1992 1.5977 7.6641 2.625 45.227 0 90.129 0 90.129-0.027344h19.934c1.4609 0 2.6523 1.1914 2.6523 2.6523v112.29z" fill="#00c6f4"/>
  <path d="m236.43 172.18c-5.3906-1.3281-11.156-2.0312-17.145-2.0312-5.9844 0-11.754 0.73047-17.172 2.0312-21.883 5.3633-37.699 20.746-37.699 38.863 0 12.945 8.043 24.48 20.609 31.984l31.902 24.754v-15.844c0.75781 0.027344 1.543 0.027344 2.3281 0.027344 5.3359 0 10.508-0.57031 15.383-1.625-0.027344-0.16406-0.054687-0.32422-0.054687-0.51562-0.19141-1.4336-0.26953-2.8711-0.26953-4.332 0-9.4258 3.793-18.387 10.969-25.973 6.8516-7.2305 16.25-12.676 27.219-15.734 0.24219-0.054687 0.46094-0.13672 0.70312-0.19141-3.5977-14.785-17.926-26.781-36.773-31.414zm-12.863 60.152h-10.074v-9.8867h10.074zm9.6953-30.332c-0.24219 0.94922-0.62109 1.7891-1.082 2.5742-0.46094 0.78516-1.0273 1.4883-1.6797 2.1133-0.64844 0.64844-1.3555 1.2461-2.1133 1.7891-0.75781 0.59766-1.4883 1.1641-2.1953 1.6797-0.67578 0.51562-1.2734 1.0547-1.7344 1.5977-0.46094 0.54297-0.83984 1.1641-1.1367 1.8672-0.26953 0.67578-0.40625 1.4883-0.40625 2.4375v1.5703h-8.8008v-1.5703c0-2.3008 0.40625-4.3594 1.1914-6.0938 0.78516-1.7617 2.0859-3.3047 3.8984-4.6328 0.64844-0.46094 1.2734-0.92188 1.8672-1.3828 0.59766-0.46094 1.1367-0.92188 1.625-1.3828 0.48828-0.46094 0.89453-0.97656 1.1914-1.5156 0.29688-0.54297 0.46094-1.1367 0.46094-1.7617 0-1.3281-0.54297-2.3281-1.5977-2.9805-1.082-0.67578-2.3008-1.0039-3.6562-1.0039-0.97656 0-1.8945 0.13672-2.7617 0.37891-0.86719 0.26953-1.625 0.59766-2.3555 1.0039-0.70312 0.40625-1.3555 0.83984-1.9219 1.3008-0.57031 0.46094-1.0547 0.86719-1.4336 1.2461l-5.6602-5.9844c0.57031-0.64844 1.3008-1.3281 2.1953-2.0859 0.89453-0.75781 1.9492-1.4336 3.1953-2.0859 1.2188-0.64844 2.6016-1.1641 4.1719-1.5977 1.5703-0.43359 3.3047-0.64844 5.2266-0.64844 1.9766 0 3.8203 0.26953 5.5234 0.8125 1.707 0.54297 3.1953 1.3281 4.4414 2.3555s2.2227 2.2734 2.9258 3.7656c0.70312 1.4883 1.0547 3.1406 1.0547 4.9844-0.027344 1.2188-0.16406 2.3008-0.43359 3.25z" fill="#00c6f4"/>
  <path d="m292.71 204.6c-6.7695 0-13.242 0.92188-19.227 2.5742-20.824 5.7969-35.641 20.773-35.641 38.348 0 1.3008 0.082031 2.6016 0.24219 3.8711 2.625 20.773 26.078 37.047 54.625 37.047 0.78516 0 1.543-0.027344 2.3281-0.027344v15.625l15.844-12.297 7.1758-5.5781 3.2227-2.4922 4.5508-3.5195c13.215-7.4766 21.746-19.309 21.746-32.633-0.027344-22.582-24.59-40.918-54.867-40.918zm-22.965 46.609c-4.25 0-7.6914-3.4375-7.6914-7.6914 0-4.25 3.4375-7.6914 7.6914-7.6914 4.25 0 7.6914 3.4375 7.6914 7.6914-0.027344 4.25-3.4688 7.6914-7.6914 7.6914zm22.965 0c-4.25 0-7.6914-3.4375-7.6914-7.6914 0-4.25 3.4375-7.6914 7.6914-7.6914 4.25 0 7.6914 3.4375 7.6914 7.6914-0.027344 4.25-3.4688 7.6914-7.6914 7.6914zm22.938 0c-4.25 0-7.6914-3.4375-7.6914-7.6914 0-4.25 3.4375-7.6914 7.6914-7.6914 4.25 0 7.6914 3.4375 7.6914 7.6914 0 4.25-3.4414 7.6914-7.6914 7.6914z" fill="#00c6f4"/>
 </g>
</svg>
